<svg xmlns="http://www.w3.org/2000/svg" xmlns:xlink="http://www.w3.org/1999/xlink" width="500" zoomAndPan="magnify" viewBox="0 0 375 374.999991" height="500" preserveAspectRatio="xMidYMid meet" version="1.0"><defs><g/><clipPath id="307d386780"><path d="M 77.808594 116.390625 L 297.183594 116.390625 L 297.183594 183.882812 L 77.808594 183.882812 Z M 77.808594 116.390625 " clip-rule="nonzero"/></clipPath><clipPath id="e2ec094187"><path d="M 178 172 L 188 172 L 188 183.882812 L 178 183.882812 Z M 178 172 " clip-rule="nonzero"/></clipPath><clipPath id="d4ded9c075"><path d="M 188 172 L 198 172 L 198 183.882812 L 188 183.882812 Z M 188 172 " clip-rule="nonzero"/></clipPath></defs><g clip-path="url(#307d386780)"><path fill="#8e05c2" d="M 287.898438 182.628906 C 280.316406 181.824219 272.726562 181.046875 265.144531 180.242188 C 257.160156 179.398438 249.171875 178.550781 241.191406 177.652344 C 240.609375 177.585938 239.929688 177.207031 239.535156 176.753906 C 236.761719 173.546875 234.050781 170.285156 231.320312 167.042969 C 226.457031 161.265625 221.597656 155.480469 216.726562 149.710938 C 211.160156 143.117188 205.582031 136.53125 200.007812 129.941406 C 196.332031 125.59375 192.652344 121.257812 188.992188 116.898438 C 188.511719 116.324219 188.195312 116.152344 187.625 116.824219 C 182.621094 122.722656 177.585938 128.59375 172.570312 134.480469 C 165.457031 142.832031 158.359375 151.199219 151.242188 159.550781 C 146.417969 165.210938 141.558594 170.84375 136.746094 176.515625 C 136.144531 177.226562 135.488281 177.570312 134.589844 177.65625 C 129.847656 178.121094 125.105469 178.621094 120.367188 179.121094 C 107.636719 180.464844 94.910156 181.816406 82.1875 183.167969 C 80.726562 183.324219 79.265625 183.511719 77.808594 183.679688 C 78.425781 183.929688 79.035156 184.011719 79.644531 184.011719 C 99.15625 184.03125 118.667969 183.996094 138.175781 184.113281 C 140.414062 184.125 141.769531 183.328125 143.148438 181.664062 C 149.167969 174.382812 155.308594 167.203125 161.410156 159.992188 C 165.953125 154.625 170.5 149.265625 175.046875 143.902344 C 179.207031 138.992188 183.371094 134.082031 187.519531 129.160156 C 188.003906 128.585938 188.363281 128.296875 188.976562 129.039062 C 192.394531 133.167969 195.84375 137.265625 199.273438 141.382812 C 204.871094 148.097656 210.457031 154.828125 216.054688 161.546875 C 222.03125 168.722656 228.027344 175.878906 233.980469 183.078125 C 234.566406 183.789062 235.160156 184.058594 236.039062 184.058594 C 255.769531 184.035156 275.5 184.03125 295.230469 184.015625 C 295.878906 184.015625 296.53125 183.929688 297.179688 183.878906 C 297.179688 183.8125 297.183594 183.746094 297.183594 183.679688 C 294.089844 183.328125 290.996094 182.960938 287.898438 182.628906 " fill-opacity="1" fill-rule="nonzero"/></g><path fill="#8e05c2" d="M 230.355469 163.996094 C 230.980469 164.75 231.519531 164.667969 232.03125 163.914062 C 232.699219 162.925781 233.355469 161.929688 234.003906 160.925781 C 239.902344 151.808594 245.792969 142.691406 251.695312 133.578125 C 251.945312 133.195312 252.261719 132.855469 252.621094 132.398438 C 253.144531 133.09375 253.582031 133.644531 253.984375 134.21875 C 260.535156 143.503906 267.144531 152.75 273.578125 162.125 C 274.878906 164.015625 276.222656 164.894531 278.414062 164.589844 C 279.320312 164.464844 280.257812 164.570312 281.46875 164.570312 C 281.039062 163.9375 280.84375 163.632812 280.628906 163.34375 C 277.515625 159.160156 274.398438 154.980469 271.285156 150.796875 C 265.457031 142.96875 259.621094 135.144531 253.804688 127.308594 C 252.566406 125.636719 252.601562 125.636719 250.8125 126.695312 C 243.832031 130.824219 236.84375 134.941406 229.859375 139.066406 C 225.636719 141.558594 221.421875 144.0625 217.1875 146.535156 C 216.527344 146.921875 216.496094 147.261719 216.972656 147.835938 C 221.445312 153.214844 225.902344 158.601562 230.355469 163.996094 " fill-opacity="1" fill-rule="nonzero"/><path fill="#8e05c2" d="M 99.84375 165.304688 C 100.121094 165.292969 100.449219 164.917969 100.648438 164.636719 C 107.78125 154.523438 114.90625 144.40625 122.019531 134.28125 C 122.269531 133.921875 122.433594 133.496094 122.679688 133.019531 C 123.203125 133.652344 123.386719 133.835938 123.523438 134.050781 C 125.949219 137.769531 128.378906 141.484375 130.792969 145.210938 C 134.96875 151.660156 139.128906 158.121094 143.300781 164.574219 C 143.984375 165.628906 144.496094 165.648438 145.265625 164.71875 C 149.617188 159.4375 153.972656 154.15625 158.320312 148.871094 C 158.550781 148.59375 158.746094 148.28125 159.042969 147.867188 C 158.589844 147.566406 158.296875 147.347656 157.984375 147.164062 C 153.753906 144.683594 149.515625 142.222656 145.292969 139.734375 C 138.082031 135.484375 130.878906 131.226562 123.675781 126.960938 C 123.136719 126.640625 122.761719 126.671875 122.371094 127.214844 C 121.476562 128.453125 120.527344 129.648438 119.617188 130.871094 C 111.5 141.773438 103.382812 152.679688 95.273438 163.589844 C 94.910156 164.074219 94.597656 164.597656 94.109375 165.335938 C 96.214844 165.335938 98.03125 165.363281 99.84375 165.304688 " fill-opacity="1" fill-rule="nonzero"/><path fill="#8e05c2" d="M 189.175781 134.640625 C 188.507812 133.84375 188.148438 133.746094 187.433594 134.609375 C 182.289062 140.832031 177.09375 147.011719 171.917969 153.210938 C 170.785156 154.566406 169.664062 155.9375 168.539062 157.304688 C 168.613281 157.382812 168.6875 157.460938 168.761719 157.539062 C 168.980469 157.347656 169.207031 157.167969 169.417969 156.96875 C 172.207031 154.304688 174.996094 151.640625 177.785156 148.972656 C 181.027344 145.867188 184.265625 142.765625 187.503906 139.652344 C 187.972656 139.203125 188.347656 138.910156 188.976562 139.507812 C 193.617188 143.9375 198.285156 148.339844 202.953125 152.746094 C 204.8125 154.503906 206.691406 156.242188 208.5625 157.988281 C 208.367188 157.355469 208.019531 156.878906 207.640625 156.433594 C 201.484375 149.171875 195.3125 141.925781 189.175781 134.640625 " fill-opacity="1" fill-rule="nonzero"/><g clip-path="url(#e2ec094187)"><path fill="#8e05c2" d="M 186.449219 172.820312 C 183.992188 172.839844 181.535156 172.855469 179.078125 172.820312 C 178.285156 172.808594 178.074219 173.15625 178.09375 173.902344 C 178.128906 175.292969 178.101562 176.6875 178.101562 178.078125 C 178.097656 178.078125 178.09375 178.078125 178.089844 178.078125 C 178.089844 179.507812 178.125 180.941406 178.078125 182.367188 C 178.046875 183.242188 178.34375 183.570312 179.207031 183.554688 C 181.515625 183.511719 183.828125 183.480469 186.136719 183.5625 C 187.203125 183.601562 187.464844 183.144531 187.449219 182.179688 C 187.410156 179.394531 187.394531 176.613281 187.410156 173.828125 C 187.414062 173.097656 187.15625 172.8125 186.449219 172.820312 " fill-opacity="1" fill-rule="nonzero"/></g><path fill="#8e05c2" d="M 187.535156 164.957031 C 187.539062 163.226562 187.527344 161.496094 187.542969 159.765625 C 187.550781 159.039062 187.269531 158.71875 186.546875 158.828125 C 184.066406 159.214844 181.9375 160.242188 180.289062 162.238281 C 178.300781 164.648438 177.9375 167.496094 178.074219 170.5 C 178.101562 171.183594 178.503906 171.261719 179.039062 171.261719 C 181.457031 171.253906 183.875 171.230469 186.292969 171.28125 C 187.289062 171.304688 187.566406 170.851562 187.546875 169.921875 C 187.507812 168.265625 187.535156 166.613281 187.535156 164.957031 " fill-opacity="1" fill-rule="nonzero"/><g clip-path="url(#d4ded9c075)"><path fill="#8e05c2" d="M 197.601562 173.796875 C 197.605469 173.054688 197.296875 172.8125 196.609375 172.820312 C 194.375 172.84375 192.136719 172.835938 189.902344 172.8125 C 189.183594 172.804688 188.9375 173.113281 188.953125 173.828125 C 188.988281 175.257812 188.964844 176.6875 188.964844 178.117188 C 188.964844 179.546875 188.992188 180.976562 188.953125 182.402344 C 188.929688 183.195312 189.148438 183.570312 190 183.554688 C 192.195312 183.511719 194.394531 183.511719 196.59375 183.546875 C 197.371094 183.558594 197.621094 183.238281 197.617188 182.480469 C 197.589844 179.585938 197.585938 176.691406 197.601562 173.796875 " fill-opacity="1" fill-rule="nonzero"/></g><path fill="#8e05c2" d="M 189.945312 158.976562 C 189.175781 158.824219 188.9375 159.046875 188.945312 159.796875 C 188.960938 161.527344 188.949219 163.261719 188.949219 164.992188 C 188.953125 164.992188 188.953125 164.992188 188.953125 164.992188 C 188.953125 166.683594 189.007812 168.378906 188.933594 170.070312 C 188.890625 171.066406 189.289062 171.304688 190.160156 171.277344 C 191.699219 171.226562 193.238281 171.257812 194.78125 171.261719 C 197.648438 171.269531 197.648438 171.269531 197.621094 168.371094 C 197.582031 163.695312 194.417969 159.855469 189.945312 158.976562 " fill-opacity="1" fill-rule="nonzero"/><path fill="#8e05c2" d="M 120.582031 153.382812 C 120.582031 152.675781 120.019531 152.101562 119.332031 152.101562 L 118.304688 152.101562 C 117.617188 152.101562 117.058594 152.675781 117.058594 153.382812 L 117.058594 155.566406 C 117.058594 156.273438 117.617188 156.847656 118.304688 156.847656 L 119.332031 156.847656 C 120.019531 156.847656 120.582031 156.273438 120.582031 155.566406 L 120.582031 153.382812 " fill-opacity="1" fill-rule="nonzero"/><path fill="#8e05c2" d="M 125.425781 153.382812 C 125.425781 152.675781 124.863281 152.101562 124.175781 152.101562 L 123.148438 152.101562 C 122.460938 152.101562 121.902344 152.675781 121.902344 153.382812 L 121.902344 155.566406 C 121.902344 156.273438 122.460938 156.847656 123.148438 156.847656 L 124.175781 156.847656 C 124.863281 156.847656 125.425781 156.273438 125.425781 155.566406 L 125.425781 153.382812 " fill-opacity="1" fill-rule="nonzero"/><path fill="#8e05c2" d="M 119.332031 157.753906 L 118.304688 157.753906 C 117.617188 157.753906 117.058594 158.328125 117.058594 159.035156 L 117.058594 161.214844 C 117.058594 161.925781 117.617188 162.5 118.304688 162.5 L 119.332031 162.5 C 120.019531 162.5 120.582031 161.925781 120.582031 161.214844 L 120.582031 159.035156 C 120.582031 158.328125 120.019531 157.753906 119.332031 157.753906 " fill-opacity="1" fill-rule="nonzero"/><path fill="#8e05c2" d="M 124.175781 157.753906 L 123.148438 157.753906 C 122.460938 157.753906 121.902344 158.328125 121.902344 159.035156 L 121.902344 161.214844 C 121.902344 161.925781 122.460938 162.5 123.148438 162.5 L 124.175781 162.5 C 124.863281 162.5 125.425781 161.925781 125.425781 161.214844 L 125.425781 159.035156 C 125.425781 158.328125 124.863281 157.753906 124.175781 157.753906 " fill-opacity="1" fill-rule="nonzero"/><path fill="#8e05c2" d="M 252.902344 153.382812 C 252.902344 152.675781 252.34375 152.101562 251.652344 152.101562 L 250.628906 152.101562 C 249.9375 152.101562 249.378906 152.675781 249.378906 153.382812 L 249.378906 155.566406 C 249.378906 156.273438 249.9375 156.847656 250.628906 156.847656 L 251.652344 156.847656 C 252.34375 156.847656 252.902344 156.273438 252.902344 155.566406 L 252.902344 153.382812 " fill-opacity="1" fill-rule="nonzero"/><path fill="#8e05c2" d="M 257.746094 153.382812 C 257.746094 152.675781 257.1875 152.101562 256.496094 152.101562 L 255.472656 152.101562 C 254.78125 152.101562 254.222656 152.675781 254.222656 153.382812 L 254.222656 155.566406 C 254.222656 156.273438 254.78125 156.847656 255.472656 156.847656 L 256.496094 156.847656 C 257.1875 156.847656 257.746094 156.273438 257.746094 155.566406 L 257.746094 153.382812 " fill-opacity="1" fill-rule="nonzero"/><path fill="#8e05c2" d="M 251.652344 157.753906 L 250.628906 157.753906 C 249.9375 157.753906 249.378906 158.328125 249.378906 159.035156 L 249.378906 161.214844 C 249.378906 161.925781 249.9375 162.5 250.628906 162.5 L 251.652344 162.5 C 252.34375 162.5 252.902344 161.925781 252.902344 161.214844 L 252.902344 159.035156 C 252.902344 158.328125 252.34375 157.753906 251.652344 157.753906 " fill-opacity="1" fill-rule="nonzero"/><path fill="#8e05c2" d="M 256.496094 157.753906 L 255.472656 157.753906 C 254.78125 157.753906 254.222656 158.328125 254.222656 159.035156 L 254.222656 161.214844 C 254.222656 161.925781 254.78125 162.5 255.472656 162.5 L 256.496094 162.5 C 257.1875 162.5 257.746094 161.925781 257.746094 161.214844 L 257.746094 159.035156 C 257.746094 158.328125 257.1875 157.753906 256.496094 157.753906 " fill-opacity="1" fill-rule="nonzero"/><g fill="#8e05c2" fill-opacity="1"><g transform="translate(74.628888, 232.687606)"><g><path d="M 44.5 -23.953125 C 44.34375 -27.117188 44.25 -29.457031 44.21875 -30.96875 C 44.195312 -32.476562 44.140625 -33.738281 44.046875 -34.75 L 44.046875 -41.015625 L 38.90625 -41.015625 L 38.90625 -52.890625 L 65.265625 -52.890625 L 65.265625 -41.015625 L 59.15625 -41.015625 L 59.15625 0 L 46.390625 0 L 24.40625 -28.484375 L 24.625 -17 L 24.625 -11.78125 L 29.765625 -11.78125 L 29.765625 0 L 3.171875 0 L 3.171875 -11.78125 L 9.4375 -11.78125 L 9.4375 -41.015625 L 3.171875 -41.015625 L 3.171875 -52.890625 L 22.140625 -52.890625 Z M 44.5 -23.953125 "/></g></g></g><g fill="#8e05c2" fill-opacity="1"><g transform="translate(142.390505, 232.687606)"><g><path d="M 39.59375 -17.90625 L 50.921875 -17.90625 L 50.921875 0 L 3.546875 0 L 3.546875 -11.78125 L 9.375 -11.78125 L 9.375 -41.171875 L 3.546875 -41.171875 L 3.546875 -52.890625 L 49.9375 -52.890625 L 49.9375 -35.125 L 38.609375 -35.125 L 38.296875 -40.421875 L 24.171875 -40.421875 L 24.171875 -32.265625 L 36.859375 -32.265625 L 36.859375 -20.625 L 24.171875 -20.625 L 24.171875 -12.609375 L 39.28125 -12.609375 Z M 39.59375 -17.90625 "/></g></g></g><g fill="#8e05c2" fill-opacity="1"><g transform="translate(196.101209, 232.687606)"><g><path d="M 45.25 -47.515625 L 45.25 -35.28125 L 32.328125 -35.28125 L 32.109375 -40.875 C 31.097656 -41.175781 30.023438 -41.390625 28.890625 -41.515625 C 27.765625 -41.640625 26.597656 -41.703125 25.390625 -41.703125 C 24.484375 -41.703125 23.445312 -41.578125 22.28125 -41.328125 C 21.125 -41.078125 20.128906 -40.632812 19.296875 -40 C 18.472656 -39.375 18.0625 -38.457031 18.0625 -37.25 C 18.0625 -35.476562 18.890625 -34.328125 20.546875 -33.796875 C 22.210938 -33.273438 24.351562 -32.890625 26.96875 -32.640625 C 29.539062 -32.390625 32.109375 -31.960938 34.671875 -31.359375 C 37.242188 -30.753906 39.570312 -29.867188 41.65625 -28.703125 C 43.75 -27.546875 45.425781 -25.957031 46.6875 -23.9375 C 47.945312 -21.925781 48.578125 -19.363281 48.578125 -16.25 C 48.578125 -13.269531 47.929688 -10.707031 46.640625 -8.5625 C 45.359375 -6.425781 43.609375 -4.664062 41.390625 -3.28125 C 39.179688 -1.894531 36.675781 -0.875 33.875 -0.21875 C 31.082031 0.425781 28.203125 0.75 25.234375 0.75 C 20.953125 0.800781 17.019531 0.328125 13.4375 -0.671875 C 9.863281 -1.679688 6.414062 -3.570312 3.09375 -6.34375 L 3.09375 -19.34375 L 16.015625 -19.34375 L 16.25 -13.453125 C 17.195312 -12.992188 18.460938 -12.640625 20.046875 -12.390625 C 21.640625 -12.140625 23.289062 -12.015625 25 -12.015625 C 26.507812 -12.015625 27.921875 -12.164062 29.234375 -12.46875 C 30.546875 -12.769531 31.613281 -13.242188 32.4375 -13.890625 C 33.269531 -14.546875 33.6875 -15.429688 33.6875 -16.546875 C 33.6875 -17.859375 32.929688 -18.828125 31.421875 -19.453125 C 29.910156 -20.078125 27.695312 -20.539062 24.78125 -20.84375 C 22.113281 -21.101562 19.492188 -21.492188 16.921875 -22.015625 C 14.347656 -22.546875 12.015625 -23.378906 9.921875 -24.515625 C 7.835938 -25.648438 6.175781 -27.234375 4.9375 -29.265625 C 3.707031 -31.304688 3.09375 -33.96875 3.09375 -37.25 C 3.09375 -40.164062 3.757812 -42.65625 5.09375 -44.71875 C 6.425781 -46.789062 8.1875 -48.476562 10.375 -49.78125 C 12.570312 -51.09375 14.976562 -52.0625 17.59375 -52.6875 C 20.21875 -53.320312 22.816406 -53.640625 25.390625 -53.640625 C 29.210938 -53.640625 32.722656 -53.207031 35.921875 -52.34375 C 39.117188 -51.488281 42.226562 -49.878906 45.25 -47.515625 Z M 45.25 -47.515625 "/></g></g></g><g fill="#8e05c2" fill-opacity="1"><g transform="translate(246.03476, 232.687606)"><g><path d="M 52.578125 -52.890625 L 52.578125 -32.40625 L 39.96875 -32.40625 L 39.515625 -40.1875 L 34.75 -40.1875 L 34.75 -11.78125 L 40.953125 -11.78125 L 40.953125 0 L 13.375 0 L 13.375 -11.78125 L 19.640625 -11.78125 L 19.640625 -40.1875 L 14.8125 -40.1875 L 14.359375 -32.40625 L 1.734375 -32.40625 L 1.734375 -52.890625 Z M 52.578125 -52.890625 "/></g></g></g></svg>