<svg id="_0565_currency" xmlns="http://www.w3.org/2000/svg" xmlns:xlink="http://www.w3.org/1999/xlink" viewBox="0 0 500 500" data-imageid="currencies-21" imageName="Currencies" class="illustrations_image" style="width: 158px;"><defs><style>.cls-1_currencies-21{fill:url(#linear-gradient);}.cls-1_currencies-21,.cls-2_currencies-21,.cls-3_currencies-21,.cls-4_currencies-21,.cls-5_currencies-21,.cls-6_currencies-21,.cls-7_currencies-21,.cls-8_currencies-21,.cls-9_currencies-21,.cls-10_currencies-21,.cls-11_currencies-21,.cls-12_currencies-21,.cls-13_currencies-21,.cls-14_currencies-21{stroke-width:0px;}.cls-2_currencies-21{isolation:isolate;opacity:.18;}.cls-2_currencies-21,.cls-14_currencies-21{fill:#68e1fd;}.cls-3_currencies-21{fill:#231f20;opacity:.14;}.cls-4_currencies-21{fill:url(#linear-gradient-4-currencies-21);}.cls-5_currencies-21{fill:url(#linear-gradient-2-currencies-21);}.cls-6_currencies-21{fill:url(#linear-gradient-3-currencies-21);}.cls-7_currencies-21{fill:url(#linear-gradient-8-currencies-21);}.cls-8_currencies-21{fill:url(#linear-gradient-7-currencies-21);}.cls-9_currencies-21{fill:url(#linear-gradient-5-currencies-21);}.cls-10_currencies-21{fill:url(#linear-gradient-6-currencies-21);}.cls-11_currencies-21{fill:#473f47;}.cls-12_currencies-21{fill:#fff;}.cls-13_currencies-21{fill:#ffb4a3;}</style><linearGradient id="linear-gradient-currencies-21" x1="67.29" y1="219.25" x2="322.06" y2="111.74" gradientUnits="userSpaceOnUse"><stop offset="0" stop-color="#231f20"/><stop offset=".13" stop-color="#231f20" stop-opacity=".69"/><stop offset=".25" stop-color="#231f20" stop-opacity=".32"/><stop offset="1" stop-color="#231f20" stop-opacity="0"/></linearGradient><linearGradient id="linear-gradient-2-currencies-21" x1="-1496.79" y1="-726.01" x2="-1420.34" y2="-655.34" gradientTransform="translate(-1191.23 1005.69) rotate(-180) scale(1 -1)" xlink:href="#linear-gradient-currencies-21"/><linearGradient id="linear-gradient-3-currencies-21" x1="-550.38" y1="-719.01" x2="-562.5" y2="-699.8" gradientTransform="translate(823.61 1005.69)" xlink:href="#linear-gradient-currencies-21"/><linearGradient id="linear-gradient-4-currencies-21" x1="-1489.9" y1="-681.79" x2="-1474.24" y2="-717.01" gradientTransform="translate(-1191.23 1005.69) rotate(-180) scale(1 -1)" xlink:href="#linear-gradient-currencies-21"/><linearGradient id="linear-gradient-5-currencies-21" x1="-637.54" y1="-753.15" x2="-542.62" y2="-749.32" gradientTransform="translate(823.61 1005.69)" gradientUnits="userSpaceOnUse"><stop offset="0" stop-color="#000"/><stop offset="1" stop-color="#000" stop-opacity="0"/></linearGradient><linearGradient id="linear-gradient-6-currencies-21" x1="-519.89" y1="-786.92" x2="-618.58" y2="-800.96" xlink:href="#linear-gradient-5-currencies-21"/><linearGradient id="linear-gradient-7-currencies-21" x1="-1431" y1="-847.22" x2="-1414.06" y2="-810.25" gradientTransform="translate(-1191.23 1005.69) rotate(-180) scale(1 -1)" xlink:href="#linear-gradient-currencies-21"/><linearGradient id="linear-gradient-8-currencies-21" x1="-1449.92" y1="-761.65" x2="-1438.98" y2="-786.13" gradientTransform="translate(-1191.23 1005.69) rotate(-180) scale(1 -1)" xlink:href="#linear-gradient-5-currencies-21"/></defs><g id="background_currencies-21"><path class="cls-2_currencies-21 targetColor" d="M202.78,73.81l-15.1-3.84c-22.04-5.42-45.76-10.77-66.96-2.65-17.22,6.64-29.99,21.17-42.04,35.06-15.85,18.34-31.82,36.86-43.64,58.04-27.88,49.97-32.06,121.05-8.38,173.02,9.43,20.71,22.05,40.82,40.94,53.61,19.66,13.34,44.53,17.44,68.19,15.22,23.65-2.21,46.37-10.3,68.12-19.64,24.31-10.41,50.06-22.76,76-17.69,13.55,2.64,25.69,9.85,37.87,16.34,21.42,11.41,44.31,21.04,68.49,23.14s49.89-4.14,67.41-20.98c17.03-16.4,24.31-40.41,28.35-63.7,4.3-24.17,5.26-48.82,2.85-73.25-2.3-23.72,7.68-46.12,3.74-70.46-3.11-19.07-13.07-37.56-29.3-48.08-20.12-13.04-45.86-12.08-69.84-11.51-20.37.48-40.73.34-61.1-.41-12.49-.45-25.14-1.18-37.01-5.12-13.56-4.46-25.43-12.79-38.14-19.33-15.9-8.11-33.09-13.34-50.47-17.79Z" style="fill: rgb(46, 196, 182);"/></g><g id="currency_currencies-21"><path class="cls-14_currencies-21 targetColor" d="M244.1,338.21h-1.28c-.35,0-.64-.29-.64-.64s.29-.64.64-.64h1.28c.35,0,.64.29.64.64s-.29.64-.64.64ZM250.49,338.21c-.35,0-.64-.29-.64-.64s.29-.64.64-.64h1.28c.35,0,.64.29.64.64s-.29.64-.64.64h-1.28ZM236.42,338.06h-1.28c-.35-.01-.63-.31-.61-.66,0,0,0,0,0,0h0c0-.33.26-.61.59-.61,0,0,.02,0,.03,0h1.28c.35,0,.64.29.64.64s-.29.64-.64.64ZM258.17,338.06c-.35,0-.64-.29-.64-.64s.29-.64.64-.64h1.28c.35,0,.64.27.67.61.01.35-.26.65-.61.67,0,0,0,0,0,0h-1.33ZM228.75,337.73h0l-1.28-.08c-.35-.02-.62-.32-.6-.68,0,0,0,0,0,0h0c0-.33.27-.6.6-.6,0,0,.02,0,.03,0h0l1.28.08c.35,0,.64.29.64.64s-.29.64-.64.64h-.03ZM265.85,337.73c-.34,0-.61-.27-.64-.6,0-.35.25-.64.6-.68l1.28-.08c.35,0,.64.25.68.6.02.35-.25.66-.6.68,0,0,0,0,0,0h0l-1.28.08h-.04ZM221.07,337.22h0l-1.28-.12c-.35-.03-.62-.33-.59-.69,0,0,0,0,0,0h0c.05-.35.35-.6.7-.58l1.28.1c.35,0,.64.29.64.64s-.29.64-.64.64h-.12ZM273.52,337.22c-.35,0-.64-.29-.64-.64s.29-.64.64-.64l1.28-.1c.35-.02.65.23.69.58.04.34-.21.65-.56.69,0,0,0,0,0,0h0l-1.28.12h-.13ZM213.48,336.51h-.08l-1.28-.14c-.35-.04-.61-.36-.56-.72s.36-.61.72-.56l1.28.14c.35,0,.64.29.64.64s-.29.64-.64.64h-.08ZM281.16,336.51c-.35,0-.64-.29-.64-.64s.29-.64.64-.64l1.28-.14c.34-.04.65.2.7.54h0c.04.35-.21.66-.56.7l-1.28.14-.14.04ZM205.86,335.62h-.09l-1.28-.18c-.35-.05-.6-.37-.56-.72s.37-.6.72-.56l1.28.18c.34.04.59.35.55.69h0c-.09.28-.36.47-.65.46l.03.13ZM288.78,335.62c-.35.02-.66-.24-.68-.59-.02-.35.24-.66.59-.68l1.28-.17c.34-.05.66.18.72.52h0c.05.35-.19.67-.54.73h0l-1.28.17-.09.03ZM198.26,334.53h-.1l-1.28-.2c-.36-.02-.63-.33-.61-.69.02-.36.33-.63.69-.61.05,0,.09.01.14.02l1.28.22c.34.05.58.37.52.71h0c-.1.27-.38.44-.67.41l.03.14ZM296.37,334.53c-.35.03-.66-.24-.69-.59-.03-.35.24-.66.59-.69l1.28-.22c.35-.05.67.18.73.52.06.35-.17.68-.52.74,0,0,0,0,0,0h0l-1.28.2-.1.03ZM190.7,333.25h-.12l-1.28-.24c-.35-.07-.57-.41-.5-.75,0,0,0,0,0,0h0c.06-.33.37-.56.71-.5,0,0,.01,0,.02,0h0l1.28.24c.35.07.57.41.5.75,0,0,0,0,0,0h0c-.13.23-.4.36-.67.31l.05.19ZM303.93,333.25c-.31,0-.57-.21-.63-.51-.06-.35.16-.68.51-.75l1.28-.24c.35-.06.68.17.74.51.08.32-.12.65-.44.73,0,0-.01,0-.02,0h0l-1.28.26h-.17ZM183.17,331.56h-.14l-1.28-.29c-.35-.08-.58-.43-.5-.78s.43-.58.78-.5h0l1.28.28c.35.08.56.42.49.76,0,0,0,0,0,0h0c-.05.31-.32.53-.63.52ZM311.37,331.42c-.35.04-.67-.22-.7-.57,0,0,0,0,0,0-.04-.34.2-.66.54-.7,0,0,.01,0,.02,0h0l1.28-.29c.35-.08.7.15.78.5.08.35-.15.7-.5.78h0l-1.28.28h-.14ZM175.64,329.69c-.05.01-.1.01-.15,0l-1.28-.32c-.35-.09-.57-.45-.49-.81.09-.35.45-.56.81-.47l1.28.33c.34.09.55.44.46.78,0,0,0,0,0,0h0c-.07.27-.3.47-.58.49h-.05ZM318.83,329.62c-.35.05-.68-.2-.72-.56s.2-.68.56-.72l1.28-.32c.35-.09.71.13.8.48s-.13.71-.48.8l-1.28.32h-.15ZM168.25,327.63h-.15l-1.28-.37c-.33-.09-.53-.43-.44-.77,0,0,0-.02,0-.02.11-.34.47-.52.81-.42l1.28.36c.35.05.6.38.55.73-.05.35-.38.6-.73.55h0l-.04-.05ZM326.23,327.55c-.28,0-.53-.18-.61-.45-.1-.34.09-.7.42-.81l1.28-.36c.33-.1.68.08.79.41h0c.1.34-.09.69-.42.79l-1.28.37h-.13l-.05.04ZM160.93,325.31h-.2l-1.28-.42c-.35-.09-.57-.45-.48-.8s.45-.57.8-.48h.1l1.2.41c.33.12.51.47.4.81h0c-.09.23-.3.38-.55.4v.09ZM333.63,325.17c-.36.01-.66-.27-.68-.63-.01-.3.18-.57.47-.65l1.2-.41c.31-.13.67.03.8.34,0,0,0,.01,0,.02h0c.11.34-.06.7-.4.82l-1.28.42-.13.09ZM153.77,322.61h-.23l-1.19-.47c-.32-.13-.48-.48-.37-.81h0c.13-.32.49-.48.82-.36l1.19.47c.33.13.49.49.37.82h0c-.09.26-.33.43-.6.43v-.09ZM340.8,322.61c-.26,0-.5-.16-.6-.4-.12-.33.03-.7.36-.83h0l1.18-.47c.33-.12.7.03.83.36.13.33-.03.7-.36.83,0,0,0,0,0,0h0l-1.19.47c-.07.02-.14.04-.22.04ZM146.68,319.78c-.08.01-.17.01-.26,0l-1.18-.52c-.32-.14-.46-.51-.32-.83,0,0,0,0,0,0h0c.15-.32.52-.46.84-.32l1.16.52c.32.15.46.52.32.84-.13.19-.36.3-.59.28v.03ZM347.87,319.65c-.25,0-.48-.15-.58-.38-.15-.31-.02-.68.29-.83h0l1.15-.52c.32-.15.7-.02.86.29h0c.14.33,0,.7-.32.86l-1.16.52c-.09.02-.18.02-.27,0l.03.06ZM139.76,316.45h-.29l-1.14-.6c-.31-.17-.42-.56-.26-.87h0c.16-.3.53-.42.83-.27,0,0,.01,0,.02,0h0l1.13.59c.29.13.43.47.3.76-.1.23-.34.37-.59.34v.04ZM354.79,316.31c-.35.08-.7-.14-.78-.49,0,0,0,0,0,0-.09-.34.12-.69.47-.78,0,0,.01,0,.02,0l1.13-.59c.3-.16.67-.06.84.24,0,0,0,.01,0,.02h0c.16.3.06.68-.24.86h0l-1.14.6c-.09.05-.19.09-.29.1v.05ZM133.06,312.72c-.12,0-.23-.03-.33-.09l-1.09-.68c-.28-.21-.34-.61-.14-.9.19-.25.53-.33.81-.19l1.09.67c.3.18.4.57.22.88,0,0,0,0,0,0h0c-.12.18-.33.28-.55.27v.04ZM361.48,312.55c-.22,0-.43-.12-.55-.31-.18-.3-.08-.7.22-.88l1.09-.67c.31-.16.7-.03.86.28.14.28.06.62-.19.81l-1.09.68c-.11.03-.22.03-.33,0v.09ZM126.65,308.46c-.13,0-.26-.04-.37-.12l-1.04-.77c-.29-.21-.35-.61-.14-.89.18-.25.5-.33.78-.21l.12.08,1.02.75c.29.19.36.58.17.87h0c-.12.18-.32.28-.54.28h0ZM367.88,308.28c-.35,0-.65-.27-.66-.62,0-.22.1-.42.27-.54l1.02-.75c.28-.2.68-.15.9.13.21.28.15.68-.13.9-.33.26-.69.52-1.04.77-.1.09-.24.13-.37.13h0ZM120.65,303.69c-.15,0-.3-.07-.42-.17l-.96-.87c-.24-.25-.24-.65,0-.9.25-.25.65-.25.9,0,0,0,0,0,0,0h0l.95.84c.27.23.3.63.08.9-.13.15-.32.23-.51.23l-.04-.04ZM373.85,303.42c-.18,0-.36-.08-.47-.22-.24-.24-.24-.64,0-.88h0l.93-.86c.25-.25.65-.25.9,0,0,0,0,0,0,0,.25.24.25.64,0,.89,0,0,0,0,0,0l-.06.06c-.31.29-.63.59-.96.87-.1.08-.22.12-.35.13ZM115.25,298.3c-.19,0-.36-.08-.49-.22l-.83-1c-.24-.24-.25-.62-.01-.87,0,0,0,0,.01-.01h0c.28-.22.68-.18.91.09l.82.96c.25.25.25.66,0,.91-.12.09-.26.14-.41.14ZM379.18,298.01c-.35,0-.64-.29-.64-.64.01-.15.06-.29.15-.41l.82-.97c.21-.27.61-.32.88-.1h0c.27.22.32.61.1.88,0,0,0,0,0,0h0l-.83,1c-.12.15-.3.24-.49.24ZM110.67,292.07c-.22,0-.43-.12-.55-.31l-.65-1.13c-.16-.32-.02-.7.29-.86,0,0,0,0,0,0,.29-.15.65-.05.82.23.2.37.42.73.64,1.1.18.3.08.69-.22.87-.09.05-.18.08-.28.09h-.05ZM383.67,291.8c-.12,0-.23-.03-.33-.09-.3-.18-.39-.57-.22-.87.2-.37.42-.73.61-1.1.17-.31.56-.43.87-.26.31.17.43.56.26.87-.2.38-.42.75-.64,1.13-.11.18-.29.3-.5.32h-.05ZM107.45,285.15c-.28,0-.53-.17-.61-.43-.14-.42-.27-.83-.38-1.28-.09-.36.12-.72.47-.82.35-.09.71.12.81.47.12.4.24.79.37,1.19.11.32-.06.68-.38.79h0c-.06.03-.12.05-.19.06h-.08ZM386.85,284.84h-.19c-.33-.1-.51-.45-.42-.78h0c.12-.4.24-.79.35-1.2.09-.35.45-.56.81-.47.35.1.56.46.47.82h0l-.37,1.28c-.12.24-.37.38-.64.36ZM106.04,277.67c-.34,0-.63-.27-.64-.61v-1.28c0-.35.28-.63.63-.64h0c.35,0,.63.28.64.63v1.28c.02.35-.24.64-.59.67,0,0,0,0,0,0h0l-.04-.04ZM388.25,277.35h0c-.36-.02-.63-.32-.61-.68v-1.28c0-.35.29-.64.64-.64s.64.29.64.64v1.28c.02.35-.25.66-.6.68,0,0,0,0,0,0h-.06ZM388.25,274.16c-.34,0-.61-.27-.64-.6-.01-.43-.05-.86-.12-1.28-.04-.36.22-.68.58-.72.35-.04.67.22.7.57,0,0,0,0,0,0,0,.42.09.86.12,1.28.03.35-.23.66-.58.69,0,0,0,0,0,0h0l-.05.05ZM106.69,270.05h-.14c-.33-.06-.55-.38-.49-.72,0,0,0-.02,0-.03h0c.09-.43.19-.86.31-1.28.09-.34.43-.54.76-.45,0,0,0,0,0,0h0c.34.09.54.44.45.78-.1.4-.2.81-.29,1.22-.07.28-.32.47-.6.47ZM386.71,266.69c-.27,0-.51-.18-.6-.43-.13-.4-.28-.79-.42-1.18-.13-.33.03-.7.36-.83,0,0,0,0,0,0h0c.33-.13.7.03.83.36,0,0,0,0,0,0,.15.4.31.81.45,1.28.12.33-.05.7-.38.82h0c-.08.02-.17.02-.26,0l.03-.03ZM109.22,262.85c-.09.03-.19.03-.28,0-.31-.15-.44-.52-.29-.83h0c.18-.38.38-.77.59-1.15.16-.31.53-.43.84-.28,0,0,0,0,.01,0h0c.31.17.42.56.26.87l-.58,1.11c-.12.19-.33.3-.55.29v-.03ZM383.42,259.78c-.22,0-.42-.11-.54-.29-.22-.36-.45-.72-.68-1.06-.19-.3-.11-.7.18-.9.3-.19.69-.1.88.19.24.36.47.73.7,1.09.18.3.09.7-.21.88,0,0,0,0,0,0h0c-.11.07-.24.1-.37.09h.04ZM113.27,256.37c-.14,0-.28-.05-.38-.14-.28-.21-.34-.6-.13-.88,0,0,0,0,0,0h0l.79-1.01c.25-.25.65-.25.9,0,0,0,0,0,0,0,.22.22.26.56.09.82l-.78,1c-.13.17-.34.27-.55.26l.05-.04ZM378.86,253.64c-.19,0-.36-.08-.49-.22-.27-.31-.55-.63-.84-.93-.24-.26-.22-.67.04-.91s.67-.22.91.04h0l.86.96c.25.25.25.65,0,.9,0,0,0,0,0,0h0c-.14.12-.33.17-.51.15h.04ZM118.36,250.62c-.35,0-.64-.28-.64-.64,0-.16.06-.32.17-.44h0c.29-.31.61-.6.92-.9.25-.25.65-.25.9,0,0,0,0,0,0,0h0c.24.24.24.64,0,.88h0l-.91.88c-.13.14-.31.22-.5.2h.05ZM373.42,248.24c-.16,0-.31-.06-.42-.17l-.96-.82c-.27-.23-.3-.63-.08-.91.23-.26.63-.3.91-.08l.97.84c.26.24.29.64.06.91-.13.15-.32.23-.52.22h.04ZM124.09,245.58c-.35-.01-.63-.3-.63-.65.01-.19.1-.36.24-.49l1.01-.79c.29-.21.69-.15.91.13.2.28.15.68-.13.9l-1.01.78c-.11.09-.25.13-.4.13ZM367.37,243.48c-.13,0-.26-.04-.37-.12l-1.05-.73c-.29-.2-.37-.6-.17-.9.2-.29.6-.37.9-.17l1.06.74c.28.21.34.61.14.9-.12.17-.31.27-.51.27h0ZM130.34,241.14c-.35,0-.64-.29-.63-.65,0-.21.1-.4.27-.52h0l1.09-.69c.3-.19.7-.1.88.2s.1.7-.2.88l-1.06.68c-.11.07-.23.1-.36.1h.01ZM360.93,239.29c-.11,0-.22-.03-.32-.09l-1.1-.65c-.3-.17-.41-.55-.25-.85,0,0,0,0,0,0h0c.18-.3.57-.41.88-.23l1.1.65c.3.16.41.54.24.83,0,0,0,.02-.01.02h0c-.11.2-.32.32-.55.32h0ZM136.95,237.22c-.35,0-.64-.28-.64-.64,0-.24.13-.45.34-.57h0l1.13-.61c.31-.17.7-.05.87.27.17.31.05.7-.27.87h0l-1.11.6c-.09.05-.2.08-.31.08h0ZM354.23,235.62c-.1,0-.2-.02-.29-.06l-1.14-.58c-.31-.15-.44-.52-.29-.83h0c.15-.32.54-.45.86-.3,0,0,0,0,0,0h0l1.15.59c.31.17.43.56.26.87,0,0,0,0,0,0-.11.21-.32.33-.55.33v-.03ZM143.79,233.72c-.24,0-.47-.14-.58-.36-.15-.32-.02-.7.29-.86h0l1.16-.54c.34-.11.7.07.81.41.09.28-.02.59-.27.75l-1.15.55c-.09.03-.18.05-.27.05ZM347.31,232.26c-.08.03-.17.03-.26,0l-1.14-.49c-.32-.15-.46-.53-.31-.85.14-.3.49-.44.81-.33l1.18.51c.35.08.57.43.5.78-.08.34-.41.56-.75.5l-.03-.13ZM150.81,230.63c-.26,0-.49-.16-.59-.4-.13-.32.03-.69.35-.83l1.19-.49c.33-.13.7.03.83.36,0,0,0,0,0,0,.14.32,0,.69-.33.82,0,0-.01,0-.02,0l-1.19.47c-.08.02-.17.02-.26,0v.05ZM340.22,229.35h-.23l-1.19-.46c-.35-.08-.57-.44-.49-.79s.44-.57.79-.49h.14l1.2.46c.32.13.48.49.36.82-.11.23-.35.37-.6.35v.12ZM157.96,227.94c-.26-.01-.5-.18-.6-.42-.12-.33.05-.7.38-.82l1.28-.43c.33-.12.7.05.82.38h0c.11.33-.07.69-.4.81l-1.2.43c-.09.04-.18.06-.28.05ZM332.98,226.66h-.2l-1.2-.41c-.35-.11-.55-.48-.44-.84s.48-.55.84-.44l1.22.41c.33.1.51.45.42.78h0c-.07.29-.33.5-.63.5ZM165.24,225.38c-.35.05-.68-.19-.73-.54,0,0,0,0,0-.01-.06-.34.17-.67.51-.73,0,0,.02,0,.03,0l1.28-.38c.34-.1.69.09.79.42.11.32-.06.67-.38.78,0,0,0,0,0,0h0l-1.28.38c-.05.03-.12.06-.18.06h-.04ZM325.66,224.36c-.06.01-.12.01-.18,0l-1.28-.36c-.35-.12-.53-.5-.42-.84.11-.32.44-.51.77-.44l1.28.36c.33.09.53.43.44.77,0,0,0,.02,0,.02-.04.3-.31.53-.61.52v-.04ZM172.61,223.22c-.34.05-.66-.18-.71-.53,0,0,0-.02,0-.02-.05-.35.19-.68.54-.73,0,0,0,0,.01,0l1.28-.33c.36-.05.7.2.75.57.04.31-.13.6-.42.71l-1.28.33c-.05.01-.11.01-.17,0h0ZM318.27,222.32h-.17l-1.28-.32c-.34-.08-.55-.43-.47-.77.09-.34.43-.55.78-.47l1.28.32c.35.04.61.36.56.72s-.36.61-.72.56v-.04ZM180.11,221.31c-.35.04-.67-.22-.71-.57-.04-.35.22-.67.57-.71l1.28-.29c.35-.09.71.13.8.48s-.13.71-.48.8h0l-1.28.29h-.18ZM310.86,220.52h-.14l-1.28-.27c-.35-.08-.56-.42-.49-.76,0,0,0,0,0,0h0c.06-.33.38-.55.72-.49,0,0,.02,0,.03,0h0l1.28.28c.35.03.61.35.58.7,0,0,0,0,0,0-.04.36-.36.61-.72.58l.03-.04ZM187.6,219.65c-.3,0-.56-.21-.63-.5-.06-.35.16-.69.5-.77l1.28-.26c.35-.06.68.16.75.51.07.35-.15.68-.5.75,0,0,0,0,0,0h0l-1.28.24h-.13ZM303.35,218.97h-.13l-1.28-.23c-.35-.07-.57-.41-.51-.75.06-.35.4-.57.74-.51l1.28.24c.35.06.57.4.51.74-.07.32-.35.54-.68.52h.06ZM195.15,218.22c-.35.03-.67-.23-.7-.58s.23-.67.58-.7l1.28-.22c.35-.06.69.18.75.53.06.35-.18.69-.53.75l-1.28.22h-.1ZM295.79,217.64h-.1l-1.28-.2c-.35-.06-.58-.38-.54-.73h0c.06-.35.39-.58.74-.52l1.28.19c.35.06.58.39.52.74-.03.35-.33.62-.69.59,0,0,0,0,0,0h0l.06-.06ZM202.73,217c-.34.03-.65-.23-.68-.57,0,0,0-.01,0-.02-.03-.35.23-.66.58-.69,0,0,0,0,0,0l1.28-.18c.35-.05.67.19.73.54h0c.05.35-.2.68-.55.73l-1.28.18h-.09ZM288.19,216.52h-.09l-1.28-.17c-.35-.05-.6-.37-.55-.72.04-.34.35-.59.69-.55h0l1.28.17c.34.04.59.35.55.69h0c-.03.35-.33.62-.69.59,0,0,0,0,0,0h.09ZM280.52,215.61h0l-1.28-.14c-.35-.04-.6-.35-.56-.7.05-.34.36-.59.7-.56l1.28.13c.35,0,.64.29.64.64s-.29.64-.64.64h-.14ZM272.84,214.89h0l-1.28-.1c-.35-.03-.62-.33-.59-.69,0,0,0,0,0,0h0c.04-.35.34-.6.69-.59l1.28.1c.35.02.61.32.59.66,0,0,0,0,0,0h0c0,.35-.3.63-.65.63h-.04ZM265.17,214.37h-1.28c-.35-.02-.62-.32-.6-.68s.32-.62.68-.6l1.28.08c.35,0,.64.29.64.64s-.29.64-.64.64h0l-.08-.08ZM257.49,214.02h-1.28c-.35,0-.63-.3-.63-.65h0c0-.35.3-.63.65-.63,0,0,0,0,.01,0h1.28c.35,0,.64.29.64.64s-.29.64-.64.64h-.04ZM249.82,213.87h-1.28c-.35,0-.64-.29-.64-.64.01-.35.29-.63.64-.64h1.28c.35,0,.63.3.63.65h0c0,.33-.26.61-.59.63h-.04Z" style="fill: rgb(46, 196, 182);"/><circle class="cls-12_currencies-21" cx="102.3" cy="267.36" r="24.98"/><path class="cls-14_currencies-21 targetColor" d="M99.46,264.2h15.12v5.86h-15.1v4.44h7.2v3.34h-7.23v5.12h-6.63v-5.12h-3.11v-3.39h3.06v-22.72h22.09v5.83h-14.76c-.56,0-.74.12-.73.73v5.12l.08.79Z" style="fill: rgb(46, 196, 182);"/><circle class="cls-12_currencies-21" cx="169.39" cy="210.58" r="24.98"/><path class="cls-14_currencies-21 targetColor" d="M185.74,201.66l-5.9,2.9c-2.19-3.47-5.22-5.21-9.38-4.59-3.17.42-5.94,2.38-7.39,5.23h11.95v3.67h-13.11v3.19h13.13v3.75h-12.05c1.38,2.89,4.11,4.89,7.28,5.33,3.84.78,7.73-1.09,9.52-4.58l6.03,2.92c-.73.99-1.34,1.94-2.09,2.81-2.8,3.32-6.94,5.23-11.28,5.19-3.43.12-6.83-.73-9.8-2.44-3.27-1.85-5.74-4.83-6.96-8.38-.23-.64-.51-.97-1.28-.87-.52.04-1.03.04-1.55,0v-3.71h1.7v-3.19h-1.7v-3.68h1.94c.34.07.67-.14.75-.47h0c.83-2.61,2.37-4.94,4.44-6.74,1.98-1.76,4.35-3.01,6.91-3.67,2.56-.69,5.24-.84,7.87-.45,3.81.51,7.25,2.56,9.52,5.67.45.59.84,1.28,1.28,1.84.07.08.13.17.18.27Z" style="fill: rgb(46, 196, 182);"/><circle class="cls-12_currencies-21" cx="328.13" cy="214.06" r="24.98" transform="translate(64.28 503.67) rotate(-80.78)"/><path class="cls-14_currencies-21 targetColor" d="M318.94,230.64l-2.33-4.68c.59-.35,1.19-.65,1.75-1.02,1.58-.89,2.8-2.31,3.43-4.02.31-1.18.17-2.43-.38-3.52,0-.13-.35-.22-.54-.22h-5.32v-3.99h3.13c-.51-.93-1.05-1.8-1.46-2.74-1.18-2.62-.88-5.66.77-8.01,1.73-2.63,4.48-4.43,7.59-4.95,3.32-.74,6.8-.34,9.86,1.14,1.91.97,3.46,2.53,4.41,4.45l-5.45,3.11c-.43-.65-.91-1.28-1.42-1.87-1.37-1.37-3.39-1.87-5.25-1.28-2.48.51-4.08,2.94-3.57,5.42.08.39.21.76.38,1.11.52,1.16,1.14,2.27,1.84,3.33.17.18.41.28.65.27h6.52v3.98h-5.5c.29,2.42-.77,4.79-2.76,6.19l.95-.12c1.77-.16,3.55.19,5.12,1.02,1.92.93,4.2.7,5.9-.6.24-.19.47-.41.68-.64.92,1.83,1.82,3.63,2.74,5.49-.84.89-1.91,1.53-3.08,1.87-2.56.83-5.31.83-7.87,0-.74-.25-1.47-.54-2.19-.87-2.02-.9-4.34-.86-6.33.12l-2.28,1.02Z" style="fill: rgb(46, 196, 182);"/><circle class="cls-12_currencies-21" cx="373.53" cy="301.4" r="24.98"/><path class="cls-14_currencies-21 targetColor" d="M373.57,298.48l1.65-2.69c1.77-2.89,3.54-5.78,5.3-8.69.17-.36.55-.58.95-.54h6.67c-3.04,4.69-6.01,9.3-9.06,13.98h7.78v3.56h-10.12v3.52h10.12v3.47h-10.11v5.12h-6.29v-5.12h-10.09v-3.48h10.03v-3.52h-10.04v-3.54h7.77l-9.11-14.07h6.69c.3-.04.6.12.74.38,1.46,2.4,2.93,4.78,4.4,7.16l2.74,4.45Z" style="fill: rgb(46, 196, 182);"/><circle class="cls-12_currencies-21" cx="168.79" cy="327.17" r="24.98" transform="translate(-181.2 441.37) rotate(-80.78)"/><path class="cls-14_currencies-21 targetColor" d="M166.7,311.09v-4.22h4.93v4.34c3.54.43,6.86,1.95,9.49,4.36l-3.99,5.27c-1.54-1.45-3.41-2.48-5.45-3.02v5.81c1.28.43,2.56.79,3.75,1.28,4.43,1.19,7.13,5.66,6.13,10.13-.38,2.66-1.93,5.01-4.23,6.4-1.56.94-3.31,1.54-5.12,1.75-.49,0-.58.24-.56.68v3.57h-4.94v-4c-1.28-.27-2.49-.49-3.68-.81-2.45-.63-4.71-1.87-6.55-3.61-.78-.72-.77-.74-.15-1.61,1.06-1.52,2.14-3.03,3.26-4.62,1.88,2.07,4.36,3.51,7.1,4.09v-6.6c-1.41-.47-2.78-.86-4.09-1.39-2.38-.77-4.31-2.54-5.27-4.85-.89-2.27-.8-4.81.26-7.01,1.44-2.86,4.12-4.89,7.27-5.5.59-.18,1.18-.27,1.87-.43ZM171.67,336.79c1.52-.16,2.7-1.39,2.8-2.92,0-1.1-1.28-2.01-2.8-2.32v5.23ZM166.64,322.31v-4.82c-1.41.03-2.56,1.15-2.62,2.56,0,1.04,1.13,2,2.62,2.25h0Z" style="fill: rgb(46, 196, 182);"/></g><g id="earth_currencies-21"><path class="cls-14_currencies-21 targetColor" d="M300.21,275.02c.46,30.29-23.71,55.21-54,55.67-30.29.46-55.21-23.71-55.67-54v-1.68c-.03-1.4.03-2.8.17-4.2,2.26-30.2,28.58-52.84,58.78-50.58,28.65,2.15,50.78,26.04,50.73,54.77h0Z" style="fill: rgb(46, 196, 182);"/><path class="cls-3_currencies-21" d="M222.32,299.93c-1.82,7.93.4,16.37-1.28,24.31-12.67-6.26-22.44-17.16-27.27-30.43-.27-2.73-.2-5.48.19-8.19.37-2.92.91-5.94.09-8.76-.79-2.17-1.94-4.2-3.4-5.99,1.23-16.23,9.62-31.07,22.9-40.49.06.37.06.74,0,1.11l-2.35,10.44c.47,3.09.47,6.24,0,9.34-.51,3.13-2.38,5.87-5.12,7.48-1.01.42-1.99.91-2.94,1.46-.92.74-1.68,1.65-2.24,2.69-1.52,2.11-2.65,4.48-3.34,6.98-.69,2.55-.04,5.27,1.73,7.23l15.35-2.97c1.6-.31,3.53-.52,4.63.68,1.28,1.43.49,3.74.78,5.67.36,2.47,2.56,4.25,3.58,6.55,1.85,4-.31,8.57-1.3,12.9Z"/><path class="cls-3_currencies-21" d="M208.41,236.58c-2.19,2.56-4.45,5.28-5.12,8.57-.21.71-.21,1.46,0,2.16.6,1.13,1.64,1.94,2.88,2.25,5.2,2,10.74,2.94,16.31,2.79-.32,3.13-.46,6.77,1.83,8.95.87.76,1.87,1.34,2.96,1.71,3.45,1.36,7.1,2.14,10.8,2.3,3.1.14,6.23-.17,9.33.18,3.82.42,7.48,1.79,10.63,3.99.81.49,1.48,1.18,1.93,2.01.33.89.47,1.85.4,2.8.02,3.37.45,6.72,1.28,9.98.83,3.17,2.17,6.4,4.84,8.33,1.41.91,2.94,1.6,4.55,2.06l10.94,3.74c.26.12.56.15.84.08.27-.14.48-.38.59-.67,1.22-2.38,2.42-5.01,1.92-7.68s-2.56-4.59-3.52-7.04c-1.57-3.84-.35-8.39-1.64-12.36-.92-2.4-2.38-4.56-4.26-6.32-3.16-3.12-6.53-6.03-10.07-8.71-5.63-4.45-11.33-8.95-17.91-11.92-2.64-1.2-5.58-2.29-7.1-4.75-1.83-2.96-1.04-7.01-3.01-9.88-1.61-2.33-4.64-3.22-7.47-3.38-4.68-.14-9.31.94-13.45,3.15-3.72,1.88-5.77,4.45-8.48,7.64Z"/><path class="cls-3_currencies-21" d="M300.21,275.02c.02,16.8-7.68,32.69-20.89,43.07-.76-.5-1.4-1.14-1.91-1.89-1.64-2.48-1.1-6.4,1.55-7.8-.92.49-4.54-.7-5.63-.87l-5.64-.87c-2.7-.42-7.42-.24-8.95-2.97-.17-.38-.38-.74-.63-1.07-.34-.34-.74-.62-1.18-.81-1.7-.83-3.68-1.77-4.09-3.62-.28-1.36.4-2.89-.31-4.09-.22-.37-.55-.67-.77-1.04-.48-1.14-.34-2.44.38-3.44,2.38-4.16,7.3-6.18,12.04-6.97,4.73-.79,9.62-.68,14.23-2.01,2.9-.84,5.67-2.25,8.66-2.66,1.65-.23,3.72-.41,4.32-1.96.33-.88,0-1.91.35-2.79.14-.38.4-.72.54-1.1.39-1.19-.27-2.47-1.46-2.85,0,0,0,0,0,0-.14-.04-.29-.07-.43-.09.38-1.02.69-2.34-.12-3.07-.58-.42-1.32-.54-2-.31-1.97.49-3.39,2.15-5.04,3.33-5.48,3.84-12.98,2.56-17.55-2.07-.74-.65-1.27-1.51-1.52-2.47-.15-1.67.78-3.25,2.32-3.94,1.5-.64,3.12-.96,4.75-.93-.6-3.98-1.28-7.97-1.83-11.94-9.11,2.44-12.79-6.24-14.07-13.46-1.28-7.22,3.84-9.8,10.44-10.23,20.81,8.34,34.45,28.51,34.45,50.93Z"/></g><g id="_character_currencies-21"><path class="cls-13_currencies-21" d="M233.94,179.21l11.51-37.59c1.48-7.2,2.14-15.7,2.96-23.03.41-2.39.39-4.84-.06-7.23-.74-3.11-2.83-6.47-1.16-9.21s6.28-2.29,9.11-.4c3.9,2.56,6.51,8.42,3.42,11.95-.96.83-1.86,1.72-2.7,2.67-1.06,1.64-.77,3.84-.56,5.72.95,8.95-.92,17.91-2.76,26.86l-5.12,24.49c-1.28,5.96-3.25,12.79-8.95,15.01-.84.41-1.82.45-2.69.1-.51-.29-.95-.7-1.28-1.19-1.32-2.09-1.56-5.67-1.7-8.16Z"/><path class="cls-1_currencies-21" d="M233.94,179.21l11.51-37.59c1.48-7.2,2.14-15.7,2.96-23.03.41-2.39.39-4.84-.06-7.23-.74-3.11-2.83-6.47-1.16-9.21s6.28-2.29,9.11-.4c3.9,2.56,6.51,8.42,3.42,11.95-.96.83-1.86,1.72-2.7,2.67-1.06,1.64-.77,3.84-.56,5.72.95,8.95-.92,17.91-2.76,26.86l-5.12,24.49c-1.28,5.96-3.25,12.79-8.95,15.01-.84.41-1.82.45-2.69.1-.51-.29-.95-.7-1.28-1.19-1.32-2.09-1.56-5.67-1.7-8.16Z"/><path class="cls-5_currencies-21" d="M259.85,299.35c0,3.02,4.87,5.87,7.25,6.58.99.21,1.96.52,2.89.93.93.46,1.52,1.42,1.51,2.46-.1.88-.82,1.6-1.01,2.46-.1.75-.01,1.52.27,2.23.91,2.93,4.52,4.75,5.4,7.68,4.99-.5,7.24-.08,12.18-.91l4.12-2.64c-2.07-3.84-4.13-7.75-6.22-11.64-.79-1.65-1.78-3.2-2.93-4.62-1.36-1.41-2.9-2.64-4.58-3.65-4.33-2.82-8.84-5.36-13.5-7.6.63.36-5.39,7.94-5.39,8.72Z"/><path class="cls-13_currencies-21" d="M262.76,285.65c-.51,1.66-.97,3.62,0,5.01.48.59,1.1,1.03,1.82,1.28,1.69.83,3.71.61,5.19-.55.77-.85,1.31-1.87,1.57-2.98,1.29-4.06,2.23-8.22,2.79-12.45.1-.39.1-.79,0-1.18-.22-.41-.56-.73-.99-.92-2.21-1.19-5.68-2.15-6.92.5-1.62,3.47-2.37,7.66-3.47,11.28Z"/><path class="cls-14_currencies-21 targetColor" d="M269.43,287.58c.47-.06.96-.01,1.41.14.31.17.57.4.78.68l4.78,5.48c.93,1.06,1.92,2.56,1.28,3.76-.45.72-1.21,1.19-2.06,1.28-2.32.23-4.66-.21-6.73-1.28-1.48-.65-2.93-1.36-4.36-2.12-1.07-.49-2-1.24-2.71-2.17-1.09-1.69-1.42-5.76.54-7.02.97-.63,1.83-.18,2.78.27,1.33.67,2.81,1.02,4.3,1Z" style="fill: rgb(46, 196, 182);"/><path class="cls-13_currencies-21" d="M289.33,304.28c.04.31,0,.63-.1.92-.17.29-.4.53-.69.7-.91.63-1.99,1-3.1,1.05-1.11.05-2.19-.42-2.9-1.28-.51-.82-.82-1.76-.9-2.72-.4-2.08-.61-4.2-.6-6.32-.11-.46.18-.92.64-1.03.06-.01.12-.02.18-.02,1.73-.37,5.12-1.28,6.04.86.88,2.52,1.37,5.17,1.43,7.84Z"/><path class="cls-14_currencies-21 targetColor" d="M296.64,304.06c1.48.07,2.94.36,4.34.84,1.42.5,2.58,1.56,3.19,2.94.28.68.31,1.44.09,2.14-.48,1.02-1.32,1.82-2.35,2.25-4.93,2.68-10.51,3.9-16.11,3.53-1.44.05-2.84-.47-3.9-1.45-.78-1.17-1.15-2.57-1.04-3.98l-.19-6.63c1.28-.19,2.39.63,3.58,1.04,2.06.7,2.87-.99,4.57-1.39,2.21-.51,5.56.47,7.83.7Z" style="fill: rgb(46, 196, 182);"/><path class="cls-6_currencies-21" d="M269.43,287.58c.47-.06.96-.01,1.41.14.31.17.57.4.78.68l4.78,5.48c.93,1.06,1.92,2.56,1.28,3.76-.45.72-1.21,1.19-2.06,1.28-2.32.23-4.66-.21-6.73-1.28-1.48-.65-2.93-1.36-4.36-2.12-1.07-.49-2-1.24-2.71-2.17-1.09-1.69-1.42-5.76.54-7.02.97-.63,1.83-.18,2.78.27,1.33.67,2.81,1.02,4.3,1Z"/><path class="cls-11_currencies-21" d="M261.14,288.58c.07.5.21.99.4,1.46.21.62.48,1.22.82,1.78.46.65,1.03,1.21,1.69,1.66,1.65,1.11,3.45,1.97,5.35,2.56,2.88,1.12,6.01,1.45,9.06.95-.28.67-.8,1.22-1.46,1.52-.66.3-1.37.46-2.09.47-2.81-.08-5.56-.83-8.03-2.17l-2.83-1.28c-.4-.18-.78-.39-1.14-.63-.5-.37-.94-.83-1.28-1.36-.64-.94-1.03-2.03-1.14-3.16-.05-.55-.01-1.1.12-1.64,0-.23.33-1.28.64-1.28-.11.36-.15.74-.1,1.11Z"/><path class="cls-4_currencies-21" d="M296.64,304.06c1.48.07,2.94.36,4.34.84,1.42.5,2.58,1.56,3.19,2.94.28.68.31,1.44.09,2.14-.48,1.02-1.32,1.82-2.35,2.25-4.93,2.68-10.51,3.9-16.11,3.53-1.44.05-2.84-.47-3.9-1.45-.78-1.17-1.15-2.57-1.04-3.98l-.19-6.63c1.28-.19,2.39.63,3.58,1.04,2.06.7,2.87-.99,4.57-1.39,2.21-.51,5.56.47,7.83.7Z"/><path class="cls-12_currencies-21" d="M278.92,230.87c1.44.27,2.77.94,3.84,1.94,1.28,1.38,1.28,3.43,1.28,5.3-.03,13.39-2.52,26.66-7.34,39.15-.22.93-.81,1.73-1.64,2.21-.74.22-1.52.18-2.24-.1-2.89-.81-5.74-1.76-8.53-2.87l3.77-25.44c.18-.71.14-1.46-.12-2.15-.28-.48-.67-.88-1.14-1.18-4.31-3.19-8.86-6.03-13.62-8.49-3.84-1.96-8.14-4.18-9.17-8.38-.43-1.42-.16-2.97.74-4.16.6-.6,1.31-1.08,2.09-1.41,2.56-1.28,5.69-2.88,8.6-2.56,2.3.23,3.2,1.6,5.12,2.56,5.42,2.83,12.55,3.85,18.37,5.58Z"/><path class="cls-9_currencies-21" d="M267.29,277.51c-.32-.1.81-6.1.91-6.7.2-1.18,1.09-6.4,2.02-2.78.15.79.25,1.6.28,2.41.12.96.28,1.92.5,2.87.12.74.34,1.47.65,2.15.59,1,1.39,1.87,2.33,2.56.18.19.41.31.67.35.37,0,.65-.35.81-.69.38-1.07.55-2.21.49-3.35.19-6.4,3.51-11.97,3.29-18.54,0-1.6-1.52-3.53-2.16-5-.57-1.19-1-2.44-1.28-3.72-.81-4.36,1.77-8.62,2.12-13.05l-8.67,4.26-4.95,38.29,3.01.96Z"/><path class="cls-14_currencies-21 targetColor" d="M244.75,227.13c-1.74.97-3.53,1.85-5.36,2.64-.49.22-.97.42-1.47.61-5.63,2.32-11.75,3.2-17.81,2.56-.61-.08-1.23-.18-1.84-.31-3.49-.56-6.69-2.29-9.06-4.91-2.83-3.39-3.49-8.11-3.67-12.55v-1.28c-.16-5.53.27-11.07,1.28-16.52,1.04-6.47,3.55-12.63,7.33-17.99,2.55-3.45,5.86-6.26,9.68-8.2,3.95-2.01,8.64-3.03,12.86-1.64,2.19.81,4.21,2.01,5.97,3.54.66.49,1.25,1.07,1.75,1.71.71,1.04,1.2,2.21,1.43,3.44,1.75,7.68-.68,15.52-2.56,23.14-1.04,4.35-1.83,9.13.15,13.13,2.83,5.64,9.67,7.94,1.3,12.61Z" style="fill: rgb(46, 196, 182);"/><path class="cls-10_currencies-21" d="M244.75,227.16c-.15,1.77-2.38,2.42-4.16,2.56l-1.2.06c-6.39.37-12.8-.22-19.02-1.74-.77-.27-1.59-.31-2.38-.1-.12.04-.23.1-.33.18v.42c-.41,1.41-.15,2.93.7,4.13-3.49-.56-6.69-2.29-9.06-4.91-2.83-3.39-3.49-8.11-3.67-12.55v-1.28c-.08-3.28.02-6.56.31-9.82.09-2.92.52-5.82,1.28-8.65,1.85-5.36,5.13-10.11,9.49-13.73.41-.38.88-.68,1.39-.88,1.18-.29,2.43-.08,3.44.59.87.42,1.65,1.02,2.28,1.75.81,1.12,1.25,2.46,1.28,3.84.04,1.87-.13,3.73-.5,5.56-.38,2.74-.97,5.45-1.77,8.1-.38.97-.67,1.97-.86,2.99-.15,1.32.08,2.65.67,3.84.47,1.07.55,2.2.93,3.33.79,2.31,2.06,4.44,3.72,6.23,3.47,3.65,8.04,6.06,13.01,6.86,1.04.09,2.05.35,3.01.75.9.5,1.45,1.44,1.43,2.47Z"/><path class="cls-13_currencies-21" d="M228.53,180.48c1.37,1.73,3.4,2.79,5.6,2.93.34.04.69-.04.99-.22.31-.31.48-.74.49-1.18.1-.88.23-2.01.32-3.13s.27-2.56.4-3.45c.26-2.55,1.22-4.97,2.79-7,.32-.44.69-.85,1.1-1.2,2.7-2.43-8.28-1.47-9.72-4.78-1.66,2.16-1.51,5.19-2.25,7.84-.5,1.29-.92,2.61-1.28,3.94-.38,2.21.19,4.49,1.57,6.26Z"/><path class="cls-8_currencies-21" d="M235.78,179.39l.14-.51c.15-1.28.27-2.56.4-3.45.26-2.55,1.22-4.97,2.79-7l.08-.27s-8.7-5.72-9.63.97c-.93,6.69,6.23,10.26,6.23,10.26Z"/><path class="cls-13_currencies-21" d="M244.85,164.46c.17,1.39-.09,2.79-.74,4.03-.35.5-.78.93-1.28,1.28-3.45,2.56-8.65,2.09-12.08-.61-3.37-2.89-5.33-7.08-5.4-11.51-.24-2.28.4-4.57,1.8-6.4,1.73-1.68,4.19-2.37,6.54-1.83,3.15.74,6.03,2.38,8.28,4.71,2.21,2.48,2.76,7.2,2.88,10.34Z"/><path class="cls-12_currencies-21" d="M276.22,248.63c1.8,2.32,3.21,4.91,4.18,7.68,5.45,13.4,8.99,27.51,10.5,41.9-4.46.56-8.98.56-13.45,0-.35-10.19-1.9-20.31-4.62-30.14-.47-2.1-1.29-4.12-2.43-5.95-1.98-2.93-5.25-4.62-8.38-6.2-7.22-3.58-14.77-6.45-22.55-8.55-3.27-.92-6.58-1.75-9.8-2.87-2.78-.83-5.38-2.16-7.68-3.94-2.31-1.81-3.8-4.48-4.12-7.41,0,.74,16.3,0,17.82-.23,5.12-.55,11.1-3.52,16.14-1.42,3.94,1.64,7.53,5.05,11.08,7.41,4.49,2.93,9.81,5.67,13.29,9.72Z"/><polygon class="cls-14_currencies-21 targetColor" points="253 247.54 224.63 233.47 257.47 221.63 283.33 233.11 253 247.54" style="fill: rgb(46, 196, 182);"/><polygon class="cls-7_currencies-21" points="253.15 245.4 229.48 233.65 256.89 223.77 278.5 233.35 253.15 245.4"/><path class="cls-13_currencies-21" d="M213.61,187.26c-.06.49-.13.97-.18,1.46-.77,7.22-.08,14.32.19,21.5.17,4.44.74,12.92,5.39,15.2,8.72,4.26,25.51,2.62,25.51,2.62,1.94-.31,3.93-.23,5.85.23,1.05.33,2.01.9,3.02,1.28,3.67,1.43,7.78.7,11.64,0,.67-.08,1.31-.29,1.89-.64,1.5-1.02,1.43-3.45.32-4.89-1.26-1.31-2.89-2.21-4.67-2.56-4.88-1.63-10.12-1.83-15.11-.59-.64.22-1.29.4-1.94.54-.77.13-1.55.18-2.33.17h-5.94c-6.81.06-13.23.09-14.25-8.01-.38-2.99-.46-6.02-.23-9.03.41-5.44,1.8-10.82,1.51-16.27-.03-1.73-.47-3.42-1.28-4.95-.81-1.53-2.36-2.52-4.09-2.62-1.81.14-3.41,1.23-4.21,2.87-.57,1.16-.94,2.41-1.09,3.7Z"/><polygon class="cls-14_currencies-21 targetColor" points="293.99 207.22 257.84 225.91 253 247.54 283.33 233.11 293.99 207.22" style="fill: rgb(46, 196, 182);"/><path class="cls-11_currencies-21" d="M245.24,149.11c-.16-.22-.35-.42-.58-.58.5-.22.8-.74.75-1.28-.08-.54-.46-.58-.84-.79s-.18-.45-.45-.87c-.19-.24-.47-.4-.78-.43l-2.71-.69c0-.35.09-.75-.17-.99s-.99,0-1.51-.13c-.74-.12-1.07-.99-1.61-1.52-1.2-1.19-2,0-3.08.19-1.09.19-1.52-.97-2.78-1.14-.98-.07-1.97.06-2.89.4-1.02.23-1.97.72-2.76,1.41-.55.63-.98,1.34-1.28,2.12-.64-.48-1.56-.36-2.05.28l-.12.19c-.24.52-.15,1.18-.5,1.62-.26-.03-.52-.03-.78,0-.26.07-.5.19-.7.36-.42.36-.67.89-.68,1.45-.4-.1-.82-.07-1.2.09.21-.37.35-.77.42-1.19.09-.32.01-.66-.2-.91-.26-.2-.75,0-.65.33.23-.54-.02-1.16-.56-1.39,0,0,0,0,0,0h0c-.55-.18-1.15-.04-1.56.36-.19-.18.14-.51.06-.77-.04-.09-.09-.17-.17-.23-.34-.32-.74-.59-1.16-.78-.42-.18-.91-.12-1.28.15-.15-.95-.97-2.39-2.15-2.11-.35.08-.64.49-.46.81-.85-.92-2.05-1.43-3.3-1.41-.42,0-1,.35-.78.72-1.1-.82-2.49-1.15-3.84-.92-.24,0-.47.13-.56.36-.06.22.31.46.4.24-.68-.1-1.37.18-1.78.74-.69.78-.65,1.96.08,2.7.78.64,2.26,0,2.06-1.04.58.71,1.59.88,2.37.41.21,1.06,1.23,1.75,2.29,1.55.24-.05.47-.14.68-.27.24,1,1.04,1.78,2.05,2,.99.19,2.01.19,3.01,0-.52.45-1.21.62-1.88.47-.32-.08-.64-.08-.96,0-.34.18-.64.42-.88.72-.05.05-.11.1-.17.14-.32.14-.68.14-1,0-.45-.15-.93-.15-1.38,0-.45.18-.73.63-.68,1.11-1.17-.24-2.31.51-2.56,1.68,0,0,0,0,0,.01-.03.21-.03.43,0,.64-.58-.19-1.22.01-1.57.51-.15.23-.25.48-.31.74-.1.48-.15.98-.14,1.47,0,.2.03.4.13.58.09.18.3.28.5.24-.27.31-.41.73-.36,1.14.05.16.14.31.26.43.2.26.49.45.81.54.32.09.67,0,.91-.23.33-.32.33-.84.61-1.28-.06.27.02.55.23.74.22.18.5.26.78.23.08,0,.15-.03.22-.08.05-.05.09-.12.12-.19.21-.55.24-1.16.09-1.73.25.23.61.31.93.2.32-.12.55-.4.6-.74-.01-.18-.01-.36,0-.54,0-.26.38-.33.59-.47.29-.2.56-.41.81-.65.12-.12,1.28-1.46,1.16-1.55.62.4,1.43.26,1.89-.31.41.73,1.29,1.06,2.09.78-1.31.91-2.51,1.96-3.58,3.13-1.07,1.17-1.71,2.66-1.82,4.23-.04.8.2,1.59.69,2.23.52.63,1.35.89,2.14.68-.05-.43-.45-.74-.88-.69-.06,0-.11.02-.17.04-.45.19-.79.57-.93,1.04-.27.57-.27,1.23,0,1.8.28.55.95.78,1.51.5h0c.24-.21.43-.47.58-.75.46-.52.95-1.01,1.46-1.47.5-.5.58-1.27.2-1.87.72-.35.69-1.42.29-2.11-.49-.62-.92-1.28-1.28-1.98h2.66l1.28-1.18c1.1.7,2.45.9,3.71.55-.22,1.28.4,2.56,1.54,3.19-.22.17-.52.37-.49.69.05.21.21.38.42.42.2.04.41.04.61,0,.09.19-.13.4-.1.61.03.12.1.23.2.31.24.19.51.33.81.41-.12.15-.12.36,0,.51.1.15.25.27.42.33.42.22.87.37,1.34.45-.05.26-.03.53.08.77.1.25.36.4.63.35.12,0,.22-.13.33-.1.07.02.13.07.18.13.21.24.37.52.47.83.03.15.09.28.17.41.12.15.28.27.46.33.24.09.54.17.73,0,.13-.14.17-.34.1-.51-.06-.17-.16-.32-.27-.46.13.06.29.02.37-.1.05-.14.05-.29,0-.42-.15-.35-.36-.68-.61-.97-.03-.06-.03-.12,0-.18.02-.06.06-.11.12-.14.22-.24,0-.64-.13-.92s-.42-.6-.28-.91c.07-.13.17-.25.27-.36.14-.19.14-.54.32-.68.18-.1.41-.05.52.13.13.15.18.36.29.51.23.22.48.42.75.59.19.18.33.43.54.61.17.23.49.27.72.11.12-.09.19-.23.21-.37.04-.35-.09-.69-.36-.92-.1-.07-.19-.15-.27-.24-.09-.09-.09-.24,0-.33.1.02.21-.03.26-.13.01-.04.01-.09,0-.13-.02-.12-.08-.23-.17-.32,0,0-.1-.1-.09-.17-.01-.03-.01-.07,0-.1.13-.22.31-.41.42-.63.19-.36.06-.8-.28-1.01.53.33,1.22.24,1.64-.23.39-.45.68-.98.84-1.56.38.29.92.21,1.2-.17.29-.38.21-.92-.17-1.2h-.1c.33.17.69.28,1.06.33.38.05.76-.1,1-.4.32-.45.15-1.15.58-1.51.65.57,1.36,1.07,2.11,1.5,1.25.41,2.61-.27,3.02-1.52v-.08c.64.42,1.44.51,2.15.24.58-.45.78-1.23.5-1.91.79-.09,1.39-.75,1.42-1.55.02-.48-.13-.95-.41-1.33Z"/><path class="cls-11_currencies-21" d="M281.03,312.37s1.28,2.56,9.93,1.1c8.65-1.46,12.72-4.16,13.2-5.68.72,1.22.31,2.79-.91,3.5,0,0,0,0,0,0h0c-2.16,1.28-10.54,7.04-20.75,3.51,0,.05-1.28-.31-1.47-2.43Z"/><path class="cls-13_currencies-21" d="M226.44,159.97c-.17,0-.33.06-.47.15-.63.42-.97,1.16-.87,1.91.1.74.43,1.43.95,1.98.21.27.47.48.77.64.41.17.84.25,1.28.26.17.04.34.04.51,0,.35-.19.56-.55.56-.95.07-.92-.13-1.85-.58-2.66-.14-.26-.36-.47-.63-.6-.45-.35-.97-.6-1.52-.73Z"/><path class="cls-14_currencies-21 targetColor" d="M217.44,150.19c-.51,1.46-.76,3-.73,4.54-.07.84.04,1.68.32,2.47.26.52.58,1.01.97,1.45.78.07,1.55-.22,2.09-.78.13-.13.23-.29.28-.47.14-.49-.19-.95-.46-1.38-.79-1.45-.98-3.15-.52-4.73.22-.87,1.74-3.2-.22-2.83-.84.23-1.5.89-1.73,1.74Z" style="fill: rgb(46, 196, 182);"/></g></svg>